<mxfile host="app.diagrams.net" modified="2023-06-30T09:58:35.036Z" agent="Mozilla/5.0 (Windows NT 10.0; Win64; x64) AppleWebKit/537.36 (KHTML, like Gecko) Chrome/113.0.0.0 Safari/537.36 OPR/99.0.0.0" etag="TudKD1pTwZo_gKJvM-Zu" version="21.5.2" type="device">
  <diagram name="Page-1" id="QKUGyI31fu_OHxhXhm4X">
    <mxGraphModel dx="796" dy="477" grid="1" gridSize="10" guides="1" tooltips="1" connect="1" arrows="1" fold="1" page="1" pageScale="1" pageWidth="827" pageHeight="1169" math="0" shadow="0">
      <root>
        <mxCell id="0" />
        <mxCell id="1" parent="0" />
        <mxCell id="-R5GNrg3keLlSxcYWTOG-1" value="&lt;font face=&quot;Courier New&quot;&gt;ST&lt;/font&gt;" style="rounded=0;whiteSpace=wrap;html=1;" vertex="1" parent="1">
          <mxGeometry x="180" y="320" width="120" height="30" as="geometry" />
        </mxCell>
        <mxCell id="-R5GNrg3keLlSxcYWTOG-2" value="&lt;font style=&quot;font-size: 10px;&quot; face=&quot;Courier New&quot;&gt;(thread &amp;lt;s&amp;gt; end, E)&lt;/font&gt;" style="rounded=0;whiteSpace=wrap;html=1;" vertex="1" parent="1">
          <mxGeometry x="180" y="290" width="120" height="30" as="geometry" />
        </mxCell>
        <mxCell id="-R5GNrg3keLlSxcYWTOG-4" value="" style="rounded=0;whiteSpace=wrap;html=1;strokeColor=#ffffff;" vertex="1" parent="1">
          <mxGeometry x="180" y="259" width="120" height="30" as="geometry" />
        </mxCell>
        <mxCell id="-R5GNrg3keLlSxcYWTOG-5" value="" style="endArrow=none;html=1;rounded=0;exitX=0;exitY=0;exitDx=0;exitDy=0;entryX=0;entryY=0;entryDx=0;entryDy=0;" edge="1" parent="1" source="-R5GNrg3keLlSxcYWTOG-2" target="-R5GNrg3keLlSxcYWTOG-4">
          <mxGeometry width="50" height="50" relative="1" as="geometry">
            <mxPoint x="290" y="390" as="sourcePoint" />
            <mxPoint x="340" y="340" as="targetPoint" />
          </mxGeometry>
        </mxCell>
        <mxCell id="-R5GNrg3keLlSxcYWTOG-6" value="" style="endArrow=none;html=1;rounded=0;exitX=1;exitY=0;exitDx=0;exitDy=0;entryX=1;entryY=0;entryDx=0;entryDy=0;" edge="1" parent="1" source="-R5GNrg3keLlSxcYWTOG-2" target="-R5GNrg3keLlSxcYWTOG-4">
          <mxGeometry width="50" height="50" relative="1" as="geometry">
            <mxPoint x="190" y="300" as="sourcePoint" />
            <mxPoint x="190" y="269" as="targetPoint" />
          </mxGeometry>
        </mxCell>
        <mxCell id="-R5GNrg3keLlSxcYWTOG-7" value="" style="endArrow=classic;html=1;rounded=0;" edge="1" parent="1">
          <mxGeometry width="50" height="50" relative="1" as="geometry">
            <mxPoint x="320" y="310" as="sourcePoint" />
            <mxPoint x="380" y="310" as="targetPoint" />
          </mxGeometry>
        </mxCell>
        <mxCell id="-R5GNrg3keLlSxcYWTOG-8" value="&lt;font face=&quot;Courier New&quot;&gt;ST&lt;/font&gt;" style="rounded=0;whiteSpace=wrap;html=1;" vertex="1" parent="1">
          <mxGeometry x="390" y="320" width="120" height="30" as="geometry" />
        </mxCell>
        <mxCell id="-R5GNrg3keLlSxcYWTOG-9" value="" style="rounded=0;whiteSpace=wrap;html=1;strokeColor=none;" vertex="1" parent="1">
          <mxGeometry x="390" y="289" width="120" height="30" as="geometry" />
        </mxCell>
        <mxCell id="-R5GNrg3keLlSxcYWTOG-10" value="" style="rounded=0;whiteSpace=wrap;html=1;strokeColor=#ffffff;" vertex="1" parent="1">
          <mxGeometry x="390" y="259" width="120" height="30" as="geometry" />
        </mxCell>
        <mxCell id="-R5GNrg3keLlSxcYWTOG-11" value="" style="endArrow=none;html=1;rounded=0;entryX=0;entryY=0;entryDx=0;entryDy=0;" edge="1" parent="1" target="-R5GNrg3keLlSxcYWTOG-10">
          <mxGeometry width="50" height="50" relative="1" as="geometry">
            <mxPoint x="390" y="320" as="sourcePoint" />
            <mxPoint x="550" y="340" as="targetPoint" />
          </mxGeometry>
        </mxCell>
        <mxCell id="-R5GNrg3keLlSxcYWTOG-12" value="" style="endArrow=none;html=1;rounded=0;exitX=1;exitY=0;exitDx=0;exitDy=0;entryX=1;entryY=0;entryDx=0;entryDy=0;" edge="1" parent="1" source="-R5GNrg3keLlSxcYWTOG-8" target="-R5GNrg3keLlSxcYWTOG-10">
          <mxGeometry width="50" height="50" relative="1" as="geometry">
            <mxPoint x="400" y="300" as="sourcePoint" />
            <mxPoint x="400" y="269" as="targetPoint" />
          </mxGeometry>
        </mxCell>
        <mxCell id="-R5GNrg3keLlSxcYWTOG-13" value="&lt;font face=&quot;Courier New&quot;&gt;[(&amp;lt;s&amp;gt;, E)]&lt;/font&gt;" style="rounded=0;whiteSpace=wrap;html=1;" vertex="1" parent="1">
          <mxGeometry x="530" y="320" width="120" height="30" as="geometry" />
        </mxCell>
        <mxCell id="-R5GNrg3keLlSxcYWTOG-14" value="" style="rounded=0;whiteSpace=wrap;html=1;strokeColor=none;" vertex="1" parent="1">
          <mxGeometry x="530" y="289" width="120" height="30" as="geometry" />
        </mxCell>
        <mxCell id="-R5GNrg3keLlSxcYWTOG-15" value="" style="rounded=0;whiteSpace=wrap;html=1;strokeColor=#ffffff;" vertex="1" parent="1">
          <mxGeometry x="530" y="259" width="120" height="30" as="geometry" />
        </mxCell>
        <mxCell id="-R5GNrg3keLlSxcYWTOG-16" value="" style="endArrow=none;html=1;rounded=0;entryX=0;entryY=0;entryDx=0;entryDy=0;" edge="1" parent="1" target="-R5GNrg3keLlSxcYWTOG-15">
          <mxGeometry width="50" height="50" relative="1" as="geometry">
            <mxPoint x="530" y="320" as="sourcePoint" />
            <mxPoint x="690" y="340" as="targetPoint" />
          </mxGeometry>
        </mxCell>
        <mxCell id="-R5GNrg3keLlSxcYWTOG-17" value="" style="endArrow=none;html=1;rounded=0;entryX=1;entryY=0;entryDx=0;entryDy=0;" edge="1" parent="1" target="-R5GNrg3keLlSxcYWTOG-15">
          <mxGeometry width="50" height="50" relative="1" as="geometry">
            <mxPoint x="650" y="320" as="sourcePoint" />
            <mxPoint x="540" y="269" as="targetPoint" />
          </mxGeometry>
        </mxCell>
        <mxCell id="-R5GNrg3keLlSxcYWTOG-18" value="σ" style="rounded=1;whiteSpace=wrap;html=1;glass=0;" vertex="1" parent="1">
          <mxGeometry x="180" y="399" width="120" height="20" as="geometry" />
        </mxCell>
        <mxCell id="-R5GNrg3keLlSxcYWTOG-19" value="σ" style="rounded=1;whiteSpace=wrap;html=1;glass=0;" vertex="1" parent="1">
          <mxGeometry x="390" y="399" width="260" height="20" as="geometry" />
        </mxCell>
        <mxCell id="-R5GNrg3keLlSxcYWTOG-21" value="" style="endArrow=classic;html=1;rounded=0;" edge="1" parent="1">
          <mxGeometry width="50" height="50" relative="1" as="geometry">
            <mxPoint x="240" y="360" as="sourcePoint" />
            <mxPoint x="240" y="390" as="targetPoint" />
          </mxGeometry>
        </mxCell>
        <mxCell id="-R5GNrg3keLlSxcYWTOG-22" value="" style="endArrow=classic;html=1;rounded=0;" edge="1" parent="1">
          <mxGeometry width="50" height="50" relative="1" as="geometry">
            <mxPoint x="449.71000000000004" y="360" as="sourcePoint" />
            <mxPoint x="449.71000000000004" y="390" as="targetPoint" />
          </mxGeometry>
        </mxCell>
        <mxCell id="-R5GNrg3keLlSxcYWTOG-23" value="" style="endArrow=classic;html=1;rounded=0;" edge="1" parent="1">
          <mxGeometry width="50" height="50" relative="1" as="geometry">
            <mxPoint x="589.71" y="360" as="sourcePoint" />
            <mxPoint x="589.71" y="390" as="targetPoint" />
          </mxGeometry>
        </mxCell>
      </root>
    </mxGraphModel>
  </diagram>
</mxfile>
